<svg width="1200" height="760" viewBox="0 0 1200 760" fill="none" xmlns="http://www.w3.org/2000/svg" role="img" aria-labelledby="title desc">
  <title id="title">MeShare project illustration</title>
  <desc id="desc">Abstract dashboard-style illustration for the MeShare China macroeconomic data library.</desc>
  <rect width="1200" height="760" rx="40" fill="#F6F1E7"/>
  <rect x="56" y="56" width="1088" height="648" rx="32" fill="#FFFDFC" stroke="#D8CFBE" stroke-width="2"/>
  <rect x="96" y="96" width="312" height="568" rx="24" fill="#314A3A"/>
  <text x="132" y="162" fill="#F6F1E7" font-family="Georgia, 'Times New Roman', serif" font-size="58" font-weight="700">MeShare</text>
  <text x="132" y="212" fill="#D8E5D8" font-family="Arial, sans-serif" font-size="28">China macroeconomic data library</text>
  <rect x="132" y="268" width="240" height="54" rx="27" fill="#E2C48D"/>
  <text x="176" y="303" fill="#314A3A" font-family="Arial, sans-serif" font-size="24" font-weight="700">Python</text>
  <rect x="132" y="362" width="240" height="132" rx="20" fill="#F8F4EC" opacity="0.94"/>
  <text x="158" y="410" fill="#314A3A" font-family="Arial, sans-serif" font-size="24" font-weight="700">Modules</text>
  <text x="158" y="448" fill="#5B6E61" font-family="Arial, sans-serif" font-size="22">GDP  CPI  PPI</text>
  <text x="158" y="484" fill="#5B6E61" font-family="Arial, sans-serif" font-size="22">PMI  Finance  FX</text>
  <rect x="132" y="528" width="240" height="96" rx="20" fill="#4D6B57"/>
  <text x="158" y="574" fill="#F6F1E7" font-family="Arial, sans-serif" font-size="24" font-weight="700">Docs + Charts</text>
  <text x="158" y="606" fill="#DDE8DD" font-family="Arial, sans-serif" font-size="20">EN / 中文</text>
  <rect x="448" y="104" width="640" height="160" rx="26" fill="#EEF2EA" stroke="#D8DFD3" stroke-width="2"/>
  <text x="492" y="164" fill="#314A3A" font-family="Georgia, 'Times New Roman', serif" font-size="46" font-weight="700">Macro Analysis Workflow</text>
  <text x="492" y="214" fill="#637467" font-family="Arial, sans-serif" font-size="24">GDP overview to policy, organized for repeated research use</text>
  <g>
    <rect x="492" y="314" width="150" height="108" rx="22" fill="#D8E5D8"/>
    <text x="532" y="374" fill="#314A3A" font-family="Arial, sans-serif" font-size="28" font-weight="700">GDP</text>
    <rect x="662" y="314" width="150" height="108" rx="22" fill="#E6D5B7"/>
    <text x="687" y="374" fill="#5A4630" font-family="Arial, sans-serif" font-size="28" font-weight="700">Demand</text>
    <rect x="832" y="314" width="150" height="108" rx="22" fill="#D9DFEE"/>
    <text x="866" y="374" fill="#394965" font-family="Arial, sans-serif" font-size="28" font-weight="700">Supply</text>
  </g>
  <g>
    <rect x="492" y="454" width="220" height="154" rx="26" fill="#FFFDFC" stroke="#D8CFBE" stroke-width="2"/>
    <polyline points="532,564 572,518 610,540 650,470 686,496" stroke="#355946" stroke-width="10" stroke-linecap="round" stroke-linejoin="round"/>
    <circle cx="532" cy="564" r="8" fill="#355946"/>
    <circle cx="572" cy="518" r="8" fill="#355946"/>
    <circle cx="610" cy="540" r="8" fill="#355946"/>
    <circle cx="650" cy="470" r="8" fill="#355946"/>
    <circle cx="686" cy="496" r="8" fill="#355946"/>
    <text x="528" y="604" fill="#637467" font-family="Arial, sans-serif" font-size="22">Chart-ready outputs</text>
  </g>
  <g>
    <rect x="744" y="454" width="344" height="154" rx="26" fill="#314A3A"/>
    <text x="782" y="510" fill="#F6F1E7" font-family="Arial, sans-serif" font-size="30" font-weight="700">Coverage</text>
    <text x="782" y="556" fill="#DDE8DD" font-family="Arial, sans-serif" font-size="22">Prices and sentiment</text>
    <text x="782" y="590" fill="#DDE8DD" font-family="Arial, sans-serif" font-size="22">Financial conditions and policy</text>
  </g>
</svg>