<svg width="960" height="640" viewBox="0 0 960 640" fill="none" xmlns="http://www.w3.org/2000/svg">
  <defs>
    <linearGradient id="bg" x1="114" y1="88" x2="832" y2="556" gradientUnits="userSpaceOnUse">
      <stop stop-color="#F5EEE4" />
      <stop offset="1" stop-color="#E7F0E2" />
    </linearGradient>
    <linearGradient id="panel" x1="172" y1="154" x2="792" y2="486" gradientUnits="userSpaceOnUse">
      <stop stop-color="#FFFFFF" />
      <stop offset="1" stop-color="#F8FBF4" />
    </linearGradient>
    <linearGradient id="accent" x1="0" y1="0" x2="1" y2="1">
      <stop stop-color="#7D9D57" />
      <stop offset="1" stop-color="#A55A57" />
    </linearGradient>
  </defs>

  <rect width="960" height="640" rx="36" fill="url(#bg)"/>
  <circle cx="168" cy="124" r="72" fill="#E8E1D4"/>
  <circle cx="804" cy="520" r="88" fill="#E6EFE2"/>

  <rect x="166" y="150" width="628" height="340" rx="26" fill="url(#panel)" stroke="#DCE5D5" stroke-width="3"/>

  <rect x="214" y="198" width="286" height="244" rx="18" fill="#EEF3E8"/>
  <circle cx="356" cy="320" r="86" fill="#FFFFFF" stroke="#D3E0C9" stroke-width="4"/>
  <path d="M270 320H442" stroke="#DCE7D3" stroke-width="6"/>
  <path d="M356 234C384 256 402 286 402 320C402 354 384 384 356 406" stroke="#BFD4A4" stroke-width="6" fill="none"/>
  <path d="M356 234C328 256 310 286 310 320C310 354 328 384 356 406" stroke="#BFD4A4" stroke-width="6" fill="none"/>
  <path d="M298 262C314 274 336 280 356 280C376 280 398 274 414 262" stroke="#E7EFE0" stroke-width="6" fill="none"/>
  <path d="M298 378C314 366 336 360 356 360C376 360 398 366 414 378" stroke="#E7EFE0" stroke-width="6" fill="none"/>
  <path d="M466 240L436 262" stroke="#A55A57" stroke-width="8" stroke-linecap="round"/>
  <path d="M466 240H506" stroke="#A55A57" stroke-width="8" stroke-linecap="round"/>
  <circle cx="466" cy="240" r="14" fill="#A55A57" fill-opacity="0.18"/>

  <rect x="536" y="198" width="212" height="244" rx="18" fill="#FFFFFF" stroke="#D9E5D0" stroke-width="3"/>
  <path d="M566 390L604 342L640 360L684 290" stroke="url(#accent)" stroke-width="10" stroke-linecap="round" stroke-linejoin="round"/>
  <path d="M566 302L604 314L640 286L684 250" stroke="#A55A57" stroke-width="10" stroke-linecap="round" stroke-linejoin="round"/>
  <circle cx="566" cy="390" r="8" fill="#5F7F3E"/>
  <circle cx="604" cy="342" r="8" fill="#5F7F3E"/>
  <circle cx="640" cy="360" r="8" fill="#5F7F3E"/>
  <circle cx="684" cy="290" r="8" fill="#5F7F3E"/>
  <circle cx="566" cy="302" r="8" fill="#A55A57"/>
  <circle cx="604" cy="314" r="8" fill="#A55A57"/>
  <circle cx="640" cy="286" r="8" fill="#A55A57"/>
  <circle cx="684" cy="250" r="8" fill="#A55A57"/>
  <path d="M566 406H706" stroke="#DCE6D4" stroke-width="8" stroke-linecap="round"/>

  <rect x="228" y="104" width="164" height="28" rx="14" fill="#314234" fill-opacity="0.08"/>
  <rect x="408" y="104" width="126" height="28" rx="14" fill="#7D9D57" fill-opacity="0.12"/>
  <rect x="548" y="104" width="174" height="28" rx="14" fill="#A55A57" fill-opacity="0.10"/>

  <text x="220" y="552" fill="#314234" font-family="Avenir Next, Segoe UI, sans-serif" font-size="34" font-weight="700">Cross-Country Spillover Heterogeneity</text>
  <text x="220" y="590" fill="#5A6558" font-family="Avenir Next, Segoe UI, sans-serif" font-size="24">Interest rates, output, exchange rates, and country structure</text>
</svg>
