<svg width="960" height="640" viewBox="0 0 960 640" fill="none" xmlns="http://www.w3.org/2000/svg">
  <defs>
    <linearGradient id="bg" x1="118" y1="88" x2="834" y2="556" gradientUnits="userSpaceOnUse">
      <stop stop-color="#F5EDE4" />
      <stop offset="1" stop-color="#E6EFE1" />
    </linearGradient>
    <linearGradient id="panel" x1="170" y1="154" x2="792" y2="486" gradientUnits="userSpaceOnUse">
      <stop stop-color="#FFFFFF" />
      <stop offset="1" stop-color="#F8FBF4" />
    </linearGradient>
    <linearGradient id="accent" x1="0" y1="0" x2="1" y2="1">
      <stop stop-color="#7D9D57" />
      <stop offset="1" stop-color="#A55A57" />
    </linearGradient>
  </defs>

  <rect width="960" height="640" rx="36" fill="url(#bg)"/>
  <circle cx="792" cy="126" r="72" fill="#E8DED1"/>
  <circle cx="154" cy="520" r="92" fill="#E6EFE1"/>

  <rect x="166" y="150" width="628" height="340" rx="26" fill="url(#panel)" stroke="#DCE5D5" stroke-width="3"/>

  <rect x="214" y="198" width="286" height="244" rx="18" fill="#EEF3E8"/>
  <rect x="246" y="330" width="122" height="56" rx="12" fill="#FFFFFF" stroke="#D3E0C9" stroke-width="4"/>
  <rect x="354" y="312" width="72" height="74" rx="12" fill="#D9E7CC"/>
  <circle cx="272" cy="396" r="18" fill="#314234"/>
  <circle cx="350" cy="396" r="18" fill="#314234"/>
  <path d="M430 280H474" stroke="#A55A57" stroke-width="10" stroke-linecap="round"/>
  <path d="M452 258V302" stroke="#A55A57" stroke-width="10" stroke-linecap="round"/>
  <path d="M246 252H470" stroke="#E7EFE0" stroke-width="8" stroke-linecap="round"/>
  <path d="M246 278H430" stroke="#EDF3E8" stroke-width="8" stroke-linecap="round"/>

  <rect x="536" y="198" width="212" height="244" rx="18" fill="#FFFFFF" stroke="#D9E5D0" stroke-width="3"/>
  <path d="M566 390L604 354L640 362L684 304" stroke="url(#accent)" stroke-width="10" stroke-linecap="round" stroke-linejoin="round"/>
  <circle cx="566" cy="390" r="8" fill="#5F7F3E"/>
  <circle cx="604" cy="354" r="8" fill="#5F7F3E"/>
  <circle cx="640" cy="362" r="8" fill="#5F7F3E"/>
  <circle cx="684" cy="304" r="8" fill="#5F7F3E"/>
  <path d="M566 250H706" stroke="#E7EFE0" stroke-width="8" stroke-linecap="round"/>
  <path d="M566 406H706" stroke="#DCE6D4" stroke-width="8" stroke-linecap="round"/>
  <rect x="580" y="280" width="36" height="96" rx="10" fill="#DDEACF"/>
  <rect x="628" y="300" width="36" height="76" rx="10" fill="#C6D8AE"/>
  <rect x="676" y="246" width="36" height="130" rx="10" fill="#A9C486"/>

  <rect x="228" y="104" width="164" height="28" rx="14" fill="#314234" fill-opacity="0.08"/>
  <rect x="408" y="104" width="126" height="28" rx="14" fill="#7D9D57" fill-opacity="0.12"/>
  <rect x="548" y="104" width="170" height="28" rx="14" fill="#A55A57" fill-opacity="0.10"/>

  <text x="220" y="552" fill="#314234" font-family="Avenir Next, Segoe UI, sans-serif" font-size="34" font-weight="700">Distribution Costs and Price Gaps</text>
  <text x="220" y="590" fill="#5A6558" font-family="Avenir Next, Segoe UI, sans-serif" font-size="24">Retail frictions, provincial differences, and price transmission</text>
</svg>
