<svg width="960" height="640" viewBox="0 0 960 640" fill="none" xmlns="http://www.w3.org/2000/svg">
  <defs>
    <linearGradient id="bg" x1="120" y1="84" x2="832" y2="560" gradientUnits="userSpaceOnUse">
      <stop stop-color="#F4EFE6" />
      <stop offset="1" stop-color="#E7EFE0" />
    </linearGradient>
    <linearGradient id="panel" x1="170" y1="154" x2="792" y2="486" gradientUnits="userSpaceOnUse">
      <stop stop-color="#FFFFFF" />
      <stop offset="1" stop-color="#F8FBF4" />
    </linearGradient>
    <linearGradient id="accent" x1="0" y1="0" x2="1" y2="1">
      <stop stop-color="#A55A57" />
      <stop offset="1" stop-color="#7D9D57" />
    </linearGradient>
  </defs>

  <rect width="960" height="640" rx="36" fill="url(#bg)"/>
  <circle cx="796" cy="126" r="72" fill="#E7DDD0"/>
  <circle cx="156" cy="520" r="92" fill="#E6EFE1"/>

  <rect x="166" y="150" width="628" height="340" rx="26" fill="url(#panel)" stroke="#DCE5D5" stroke-width="3"/>

  <rect x="214" y="198" width="286" height="244" rx="18" fill="#EEF3E8"/>
  <rect x="246" y="334" width="44" height="72" rx="8" fill="#D5E4C8"/>
  <rect x="298" y="308" width="54" height="98" rx="8" fill="#C0D6A5"/>
  <rect x="362" y="278" width="62" height="128" rx="8" fill="#A8C387"/>
  <rect x="434" y="246" width="34" height="160" rx="8" fill="#8CAA66"/>
  <path d="M240 250H470" stroke="#E7EFE0" stroke-width="8" stroke-linecap="round"/>
  <path d="M252 228L302 214L352 232L402 204L452 220" stroke="#A55A57" stroke-width="10" stroke-linecap="round" stroke-linejoin="round"/>
  <circle cx="252" cy="228" r="7" fill="#A55A57"/>
  <circle cx="302" cy="214" r="7" fill="#A55A57"/>
  <circle cx="352" cy="232" r="7" fill="#A55A57"/>
  <circle cx="402" cy="204" r="7" fill="#A55A57"/>
  <circle cx="452" cy="220" r="7" fill="#A55A57"/>

  <rect x="536" y="198" width="212" height="244" rx="18" fill="#FFFFFF" stroke="#D9E5D0" stroke-width="3"/>
  <circle cx="642" cy="268" r="52" fill="#EFF4EA" stroke="#D5E2CC" stroke-width="4"/>
  <path d="M612 256H672" stroke="#7D9D57" stroke-width="8" stroke-linecap="round"/>
  <path d="M642 226V310" stroke="#7D9D57" stroke-width="8" stroke-linecap="round"/>
  <path d="M586 372L620 340L654 356L696 290" stroke="url(#accent)" stroke-width="10" stroke-linecap="round" stroke-linejoin="round"/>
  <circle cx="586" cy="372" r="8" fill="#5F7F3E"/>
  <circle cx="620" cy="340" r="8" fill="#5F7F3E"/>
  <circle cx="654" cy="356" r="8" fill="#5F7F3E"/>
  <circle cx="696" cy="290" r="8" fill="#5F7F3E"/>

  <rect x="228" y="104" width="166" height="28" rx="14" fill="#314234" fill-opacity="0.08"/>
  <rect x="410" y="104" width="126" height="28" rx="14" fill="#7D9D57" fill-opacity="0.12"/>
  <rect x="550" y="104" width="164" height="28" rx="14" fill="#A55A57" fill-opacity="0.10"/>

  <text x="220" y="552" fill="#314234" font-family="Avenir Next, Segoe UI, sans-serif" font-size="33" font-weight="700">U.S. Tightening and China Housing</text>
  <text x="220" y="590" fill="#5A6558" font-family="Avenir Next, Segoe UI, sans-serif" font-size="24">Market stratification, listings, and asset reallocation</text>
</svg>
